<?xml version="1.0" encoding="utf-8"?>
<!-- Generator: Adobe Illustrator 16.0.0, SVG Export Plug-In . SVG Version: 6.00 Build 0)  -->
<!DOCTYPE svg PUBLIC "-//W3C//DTD SVG 1.0//EN" "http://www.w3.org/TR/2001/REC-SVG-20010904/DTD/svg10.dtd">
<svg version="1.0" id="Layer_1" xmlns="http://www.w3.org/2000/svg" xmlns:xlink="http://www.w3.org/1999/xlink" x="0px" y="0px"
	 width="259.667px" height="63.667px" viewBox="0 0 259.667 63.667" enable-background="new 0 0 259.667 63.667"
	 xml:space="preserve">
<g enable-background="new    ">
	<path fill="#404041" d="M119.85,28.845c1.464,0.938,2.624,2.224,3.479,3.856c0.855,1.633,1.283,3.451,1.283,5.457v8.6
		c0,0.565-0.17,1.035-0.51,1.407c-0.34,0.373-0.768,0.56-1.283,0.56c-0.516,0-0.944-0.187-1.283-0.56
		c-0.34-0.372-0.51-0.842-0.51-1.407V45.33c-0.82,1.105-1.816,1.967-2.988,2.584s-2.437,0.926-3.796,0.926
		c-1.688,0-3.216-0.463-4.587-1.389c-1.371-0.926-2.449-2.203-3.234-3.836c-0.786-1.633-1.178-3.452-1.178-5.457
		c0-2.006,0.422-3.824,1.266-5.457c0.843-1.632,2.009-2.917,3.497-3.856c1.488-0.938,3.134-1.408,4.939-1.408
		C116.75,27.437,118.385,27.906,119.85,28.845z M118.127,44.423c0.949-0.629,1.693-1.49,2.232-2.583
		c0.539-1.093,0.808-2.319,0.808-3.683s-0.27-2.597-0.808-3.702c-0.54-1.104-1.283-1.973-2.232-2.603
		c-0.949-0.63-2.009-0.945-3.181-0.945c-1.172,0-2.232,0.315-3.181,0.945c-0.949,0.63-1.699,1.499-2.25,2.603
		c-0.551,1.105-0.826,2.339-0.826,3.702s0.275,2.59,0.826,3.683c0.55,1.093,1.3,1.954,2.25,2.583
		c0.949,0.631,2.009,0.945,3.181,0.945C116.118,45.369,117.179,45.054,118.127,44.423z"/>
	<path fill="#404041" d="M155.105,29.597c1.253,1.465,1.881,3.509,1.881,6.131v11.029c0,0.565-0.165,1.035-0.492,1.407
		c-0.329,0.373-0.762,0.56-1.301,0.56c-0.516,0-0.943-0.187-1.283-0.56c-0.34-0.372-0.51-0.842-0.51-1.407V35.728
		c0-1.568-0.357-2.758-1.072-3.567c-0.715-0.81-1.67-1.215-2.865-1.215c-1.218,0-2.22,0.463-3.004,1.388
		c-0.786,0.926-1.178,2.108-1.178,3.548v10.875c0,0.565-0.164,1.035-0.492,1.407c-0.328,0.373-0.762,0.56-1.301,0.56
		c-0.516,0-0.943-0.187-1.283-0.56c-0.34-0.372-0.51-0.842-0.51-1.407V35.728c0-1.568-0.357-2.758-1.072-3.567
		c-0.715-0.81-1.67-1.215-2.864-1.215c-1.242,0-2.256,0.463-3.04,1.388c-0.785,0.926-1.178,2.108-1.178,3.548v10.875
		c0,0.565-0.164,1.035-0.492,1.407c-0.328,0.373-0.762,0.56-1.301,0.56c-0.516,0-0.943-0.187-1.283-0.56
		c-0.34-0.372-0.509-0.842-0.509-1.407V29.597c0-0.591,0.169-1.066,0.509-1.427c0.34-0.36,0.768-0.54,1.283-0.54
		s0.938,0.173,1.266,0.521s0.504,0.804,0.527,1.369c0.609-0.668,1.336-1.189,2.18-1.562c0.843-0.372,1.757-0.559,2.741-0.559
		c1.194,0,2.267,0.264,3.216,0.791c0.949,0.527,1.729,1.279,2.338,2.256c0.703-0.951,1.582-1.697,2.637-2.236
		c1.054-0.54,2.225-0.81,3.514-0.81C152.205,27.398,153.851,28.131,155.105,29.597z"/>
	<path fill="#404041" d="M177.53,28.845c1.487,0.938,2.653,2.224,3.497,3.856c0.844,1.633,1.266,3.451,1.266,5.457
		c0,2.005-0.393,3.824-1.178,5.457s-1.862,2.91-3.233,3.836c-1.37,0.926-2.899,1.389-4.587,1.389c-1.359,0-2.625-0.309-3.797-0.926
		s-2.167-1.479-2.987-2.584v10.412c0,0.592-0.164,1.066-0.491,1.428c-0.329,0.359-0.762,0.539-1.301,0.539
		c-0.516,0-0.943-0.18-1.283-0.539c-0.34-0.361-0.51-0.836-0.51-1.428V38.158c0-2.006,0.428-3.824,1.283-5.457
		c0.855-1.632,2.015-2.917,3.479-3.856c1.464-0.938,3.099-1.408,4.903-1.408S176.042,27.906,177.53,28.845z M175.773,44.423
		c0.949-0.629,1.698-1.49,2.249-2.583c0.55-1.093,0.826-2.319,0.826-3.683s-0.276-2.597-0.826-3.702
		c-0.551-1.104-1.3-1.973-2.249-2.603c-0.949-0.63-2.01-0.945-3.182-0.945s-2.232,0.315-3.182,0.945
		c-0.948,0.63-1.692,1.499-2.231,2.603c-0.539,1.105-0.808,2.339-0.808,3.702s0.269,2.59,0.808,3.683s1.283,1.954,2.231,2.583
		c0.949,0.631,2.01,0.945,3.182,0.945S174.824,45.054,175.773,44.423z"/>
	<path fill="#404041" d="M201.255,28.845c1.465,0.938,2.625,2.224,3.48,3.856c0.855,1.633,1.283,3.451,1.283,5.457v8.6
		c0,0.565-0.171,1.035-0.51,1.407c-0.34,0.373-0.768,0.56-1.283,0.56s-0.943-0.187-1.283-0.56c-0.34-0.372-0.51-0.842-0.51-1.407
		V45.33c-0.82,1.105-1.816,1.967-2.988,2.584s-2.437,0.926-3.795,0.926c-1.688,0-3.217-0.463-4.588-1.389s-2.449-2.203-3.233-3.836
		c-0.786-1.633-1.178-3.452-1.178-5.457c0-2.006,0.422-3.824,1.266-5.457c0.843-1.632,2.009-2.917,3.497-3.856
		s3.134-1.408,4.939-1.408C198.156,27.437,199.791,27.906,201.255,28.845z M199.533,44.423c0.949-0.629,1.693-1.49,2.232-2.583
		s0.809-2.319,0.809-3.683s-0.27-2.597-0.809-3.702c-0.539-1.104-1.283-1.973-2.232-2.603c-0.948-0.63-2.009-0.945-3.18-0.945
		c-1.173,0-2.232,0.315-3.182,0.945c-0.949,0.63-1.699,1.499-2.25,2.603c-0.551,1.105-0.826,2.339-0.826,3.702
		s0.275,2.59,0.826,3.683s1.301,1.954,2.25,2.583c0.949,0.631,2.009,0.945,3.182,0.945
		C197.524,45.369,198.584,45.054,199.533,44.423z"/>
	<path fill="#404041" d="M227.143,29.288c0,0.257-0.07,0.566-0.211,0.925l-10.756,26.531c-0.281,0.796-0.738,1.195-1.37,1.195
		c-0.235,0-0.517-0.077-0.844-0.231c-0.703-0.334-1.055-0.836-1.055-1.504c0-0.309,0.07-0.617,0.211-0.926l3.515-8.676
		l-7.909-16.467c-0.117-0.231-0.176-0.501-0.176-0.81c0-0.334,0.094-0.643,0.281-0.925s0.434-0.501,0.738-0.656
		c0.211-0.103,0.445-0.154,0.703-0.154c0.656,0,1.148,0.36,1.477,1.08l6.432,14.038l5.66-13.999
		c0.304-0.745,0.761-1.118,1.371-1.118c0.304,0,0.585,0.064,0.843,0.193C226.779,28.093,227.143,28.594,227.143,29.288z"/>
	<path fill="#404041" d="M243.224,28.845c1.464,0.938,2.624,2.224,3.479,3.856c0.855,1.633,1.283,3.451,1.283,5.457v8.6
		c0,0.565-0.171,1.035-0.51,1.407c-0.34,0.373-0.768,0.56-1.282,0.56c-0.517,0-0.944-0.187-1.283-0.56
		c-0.34-0.372-0.51-0.842-0.51-1.407V45.33c-0.82,1.105-1.816,1.967-2.988,2.584s-2.438,0.926-3.796,0.926
		c-1.688,0-3.216-0.463-4.587-1.389s-2.449-2.203-3.234-3.836s-1.178-3.452-1.178-5.457c0-2.006,0.422-3.824,1.266-5.457
		c0.844-1.632,2.01-2.917,3.498-3.856c1.487-0.938,3.133-1.408,4.938-1.408C240.125,27.437,241.759,27.906,243.224,28.845z
		 M241.501,44.423c0.949-0.629,1.693-1.49,2.232-2.583s0.809-2.319,0.809-3.683s-0.27-2.597-0.809-3.702
		c-0.539-1.104-1.283-1.973-2.232-2.603c-0.949-0.63-2.01-0.945-3.181-0.945c-1.173,0-2.232,0.315-3.181,0.945
		c-0.949,0.63-1.699,1.499-2.25,2.603c-0.551,1.105-0.826,2.339-0.826,3.702s0.275,2.59,0.826,3.683s1.301,1.954,2.25,2.583
		c0.948,0.631,2.008,0.945,3.181,0.945C239.492,45.369,240.552,45.054,241.501,44.423z"/>
</g>
<linearGradient id="SVGID_1_" gradientUnits="userSpaceOnUse" x1="28.2725" y1="50.7104" x2="73.7519" y2="5.2311" gradientTransform="matrix(1 0 0 -1 0 64.667)">
	<stop  offset="0" style="stop-color:#26A9E0"/>
	<stop  offset="1" style="stop-color:#0069A8"/>
</linearGradient>
<path fill="url(#SVGID_1_)" d="M84.286,24.887c-3.556-3.556-8.398-5.3-13.269-4.931c-0.748-2.309-1.915-4.487-3.481-6.437
	c-3.382-4.21-8.201-6.852-13.57-7.438C50.124,5.662,46.27,6.342,42.82,8.049c-3.342,1.653-6.156,4.188-8.146,7.333
	c1.837,0.423,3.586,1.078,5.209,1.94c3.135-4.219,8.202-6.454,13.497-5.876c3.936,0.43,7.469,2.367,9.948,5.453
	c2.255,2.808,3.389,6.262,3.252,9.826c1.601-0.898,3.437-1.426,5.392-1.468v-0.001c0.085-0.002,0.17-0.005,0.256-0.005
	c3.069,0,5.855,1.197,7.924,3.148c0.042,0.039,0.082,0.079,0.123,0.118c0.047,0.046,0.097,0.092,0.145,0.139
	c0.016,0.017,0.033,0.032,0.049,0.048c4.517,4.518,4.517,11.867,0,16.383c-3.047,3.049-7.383,4.037-11.269,2.973l0.002-0.01
	l0.034,0.011c-0.015-0.004-1.577-0.506-4.428-2.421c-0.163-0.109-0.333-0.225-0.507-0.348c-0.072-0.067-0.145-0.133-0.215-0.205
	l-0.031,0.033c-2.674-1.885-6.699-5.176-11.751-10.658c-4.176-4.532-7.453-7.6-9.984-9.673c-2.427-1.99-4.167-3.067-5.353-3.649
	c-0.022-0.013-0.043-0.028-0.066-0.04c-2.87-1.339-6.084-1.856-9.317-1.444c-9.288,1.185-15.88,9.706-14.695,18.994
	c1.001,7.846,7.237,13.762,14.749,14.698v-0.024c0.692,0.086,1.389,0.133,2.087,0.133c4.087,0,8.173-1.463,11.399-4.388
	c2.136-1.507,4.357-3.323,6.646-5.435l-3.822-3.822c-2.417,2.214-4.439,3.795-6,4.895l-0.032-0.031
	c-0.07,0.07-0.143,0.137-0.214,0.203c-0.176,0.123-0.345,0.238-0.508,0.349c-2.852,1.915-4.413,2.416-4.429,2.42l0.034-0.009
	l0.003,0.009c-1.978,0.542-4.072,0.55-6.054,0.026v0.018c-4.408-1.182-7.894-4.924-8.506-9.725
	c-0.809-6.336,3.689-12.149,10.026-12.958c2.01-0.256,4.008,0.017,5.828,0.758c0,0-0.002,0.004-0.002,0.003
	c0.01,0.003,0.037,0.012,0.08,0.027c0.164,0.068,0.325,0.14,0.485,0.215c0.631,0.314,1.809,1.003,3.65,2.465
	c2.267,1.799,5.538,4.768,10.028,9.641c4.404,4.78,8.615,8.592,12.542,11.362c3.226,2.925,7.312,4.388,11.399,4.388
	c4.349,0,8.697-1.654,12.008-4.966C90.907,42.281,90.907,31.508,84.286,24.887z"/>
</svg>
